<svg width="21" height="21" viewBox="0 0 21 21" fill="none" xmlns="http://www.w3.org/2000/svg">
<g id="Iconly/Light-Outline/Search">
<g id="Search">
<g id="Group 3">
<mask id="mask0_1_2126" style="mask-type:luminance" maskUnits="userSpaceOnUse" x="1" y="2" width="18" height="17">
<path id="Clip 2" fill-rule="evenodd" clip-rule="evenodd" d="M1.935 2.16675H18.1657V18.3976H1.935V2.16675Z" fill="white"/>
</mask>
<g mask="url(#mask0_1_2126)">
<path id="Fill 1" fill-rule="evenodd" clip-rule="evenodd" d="M10.0507 3.41675C6.26483 3.41675 3.18483 6.49591 3.18483 10.2817C3.18483 14.0676 6.26483 17.1476 10.0507 17.1476C13.8357 17.1476 16.9157 14.0676 16.9157 10.2817C16.9157 6.49591 13.8357 3.41675 10.0507 3.41675ZM10.0507 18.3976C5.57566 18.3976 1.93483 14.7567 1.93483 10.2817C1.93483 5.80675 5.57566 2.16675 10.0507 2.16675C14.5257 2.16675 18.1657 5.80675 18.1657 10.2817C18.1657 14.7567 14.5257 18.3976 10.0507 18.3976Z" fill="#B8B8B8"/>
</g>
</g>
<g id="Group 6">
<mask id="mask1_1_2126" style="mask-type:luminance" maskUnits="userSpaceOnUse" x="14" y="15" width="5" height="5">
<path id="Clip 5" fill-rule="evenodd" clip-rule="evenodd" d="M14.635 15.2559H18.8217V19.4348H14.635V15.2559Z" fill="white"/>
</mask>
<g mask="url(#mask1_1_2126)">
<path id="Fill 4" fill-rule="evenodd" clip-rule="evenodd" d="M18.1968 19.4348C18.0377 19.4348 17.8777 19.374 17.7552 19.2523L14.8185 16.324C14.5743 16.0798 14.5735 15.684 14.8177 15.4398C15.061 15.194 15.4568 15.1957 15.7018 15.4382L18.6385 18.3673C18.8827 18.6115 18.8835 19.0065 18.6393 19.2507C18.5177 19.374 18.3568 19.4348 18.1968 19.4348Z" fill="#B8B8B8"/>
</g>
</g>
</g>
</g>
</svg>
